<svg xmlns="http://www.w3.org/2000/svg" fill="none" viewBox="0 0 24 24" id="Contract--Streamline-Sharp-Material" height="24" width="24"><desc>Contract Streamline Icon: https://streamlinehq.com</desc><path fill="#D1D5DB" d="M5.625 22c-0.729165 0 -1.348915 -0.25525 -1.85925 -0.76575C3.25525 20.7239 3 20.10415 3 19.375V16h3V2h15v17.375c0 0.72915 -0.25515 1.3489 -0.7655 1.85925C19.724 21.74475 19.10415 22 18.375 22h-12.75Zm12.74775 -1.5c0.31815 0 0.5856 -0.10785 0.80225 -0.3235s0.325 -0.48285 0.325 -0.8015V3.5H7.5v12.5h9.75v3.375c0 0.31865 0.1076 0.58585 0.32275 0.8015 0.21515 0.21565 0.48185 0.3235 0.8 0.3235ZM9 8v-1.5h9v1.5H9Zm0 3v-1.5h9v1.5H9Zm-3.4 9.5h10.15v-3H4.5v1.875c0 0.31865 0.108335 0.58585 0.325 0.8015 0.21665 0.21565 0.475 0.3235 0.775 0.3235Zm0 0H4.5h11.25Z" stroke-width="0.5"></path></svg>