<svg
  xmlns="http://www.w3.org/2000/svg"
  viewBox="0 0 398 311"
  width="100"
  height="100"
>
  <defs>
    <linearGradient id="solana-gradient1" x1="90.29%" x2="15.16%" y1="16.44%" y2="88.67%">
      <stop offset="0%" stop-color="#00FFA3" />
      <stop offset="100%" stop-color="#DC1FFF" />
    </linearGradient>
    <linearGradient id="solana-gradient2" x1="90.29%" x2="15.16%" y1="16.44%" y2="88.67%">
      <stop offset="0%" stop-color="#DC1FFF" />
      <stop offset="100%" stop-color="#00FFA3" />
    </linearGradient>
    <linearGradient id="solana-gradient3" x1="24.78%" x2="80.89%" y1="20.11%" y2="86.86%">
      <stop offset="0%" stop-color="#00FFA3" />
      <stop offset="100%" stop-color="#DC1FFF" />
    </linearGradient>
  </defs>
  <g fill="none">
    <path
      fill="url(#solana-gradient1)"
      d="M54.6 0h289.5c7.3 0 11.4 8.2 6.7 13.9l-50.4 56.5c-1.3 1.5-3.3 2.4-5.3 2.4H5.6c-7.3 0-11.4-8.2-6.7-13.9L49.3 2.4C50.6.9 52.6 0 54.6 0z"
    />
    <path
      fill="url(#solana-gradient2)"
      d="M343.4 115.2c7.3 0 11.4 8.2 6.7 13.9l-50.4 56.5c-1.3 1.5-3.3 2.4-5.3 2.4H5.6c-7.3 0-11.4-8.2-6.7-13.9l50.4-56.5c1.3-1.5 3.3-2.4 5.3-2.4h289.8z"
    />
    <path
      fill="url(#solana-gradient3)"
      d="M343.4 230.4c7.3 0 11.4 8.2 6.7 13.9l-50.4 56.5c-1.3 1.5-3.3 2.4-5.3 2.4H54.6c-7.3 0-11.4-8.2-6.7-13.9l50.4-56.5c1.3-1.5 3.3-2.4 5.3-2.4h289.8z"
    />
  </g>
</svg>
