<svg role="img" viewBox="0 0 24 24" xmlns="http://www.w3.org/2000/svg" id="Turborepo--Streamline-Simple-Icons" height="24" width="24"><desc>Turborepo Streamline Icon: https://streamlinehq.com</desc><title>Turborepo</title><path d="M6.155 12.058c0 0.503 0.095 0.967 0.285 1.392 0.19 0.424 0.447 0.793 0.771 1.106 0.324 0.313 0.699 0.56 1.123 0.738 0.437 0.168 0.895 0.252 1.375 0.252 0.481 0 0.934 -0.084 1.359 -0.252a3.578 3.578 0 0 0 1.14 -0.738 3.37 3.37 0 0 0 1.073 -2.498 3.371 3.371 0 0 0 -1.073 -2.498 3.356 3.356 0 0 0 -1.14 -0.721 3.463 3.463 0 0 0 -1.359 -0.269c-0.48 0 -0.938 0.09 -1.374 0.269 -0.425 0.167 -0.8 0.408 -1.124 0.72a3.52 3.52 0 0 0 -0.771 1.107 3.37 3.37 0 0 0 -0.285 1.392Zm-3.437 0c0 -0.939 0.173 -1.81 0.52 -2.616a6.524 6.524 0 0 1 1.441 -2.13 6.503 6.503 0 0 1 2.197 -1.408c0.86 -0.346 1.805 -0.52 2.833 -0.52 1.018 0 1.957 0.174 2.817 0.52a6.47 6.47 0 0 1 2.213 1.409 6.542 6.542 0 0 1 1.979 4.745c0 0.939 -0.173 1.816 -0.52 2.632a6.45 6.45 0 0 1 -1.459 2.113 6.678 6.678 0 0 1 -2.213 1.425c-0.86 0.335 -1.8 0.503 -2.817 0.503 -1.028 0 -1.973 -0.168 -2.833 -0.503a6.717 6.717 0 0 1 -2.197 -1.425 6.572 6.572 0 0 1 -1.442 -2.113 6.663 6.663 0 0 1 -0.52 -2.632ZM10.144 0.008c-2.76 -0.096 -5.52 0.76 -7.805 2.569l1.523 0.857C5.67 2.1 7.955 1.53 10.144 1.625V0.007Zm8.09 3.616C16.331 1.625 13.856 0.388 11.191 0.102V1.72a10.725 10.725 0 0 1 5.901 3.046l1.142 -1.142Zm3.427 7.805c-0.095 -2.475 -1.047 -4.95 -2.665 -7.043l-1.142 1.142c1.332 1.808 2.094 3.807 2.189 5.9h1.618Zm-2.665 8.185c1.618 -2.094 2.57 -4.568 2.665 -7.043h-1.618c-0.095 2.094 -0.857 4.093 -2.19 5.901l1.143 1.142Zm-7.805 4.284c2.57 -0.286 5.14 -1.523 7.043 -3.522l-1.142 -1.142c-1.618 1.713 -3.712 2.76 -5.901 3.046v1.618Zm-8.852 -2.475a11.867 11.867 0 0 0 7.805 2.57v-1.618c-2.19 0.095 -4.378 -0.476 -6.282 -1.809l-1.523 0.857Z" fill="#D1D5DB" stroke-width="1"></path></svg>